# xmcd
#
# Track frame offsets: 
#        150
#        21625
#        41267
#        62487
#        82930
#        116970
#        152792
#        176832
#        202645
#        225295
#
# Disc length: 3286 seconds
#
# Revision: 4
# Processed by: cddbd v1.5.2PL0 Copyright (c) Steve Scherf et al.
# Submitted via: ExactAudioCopy v0.95b4
#
DISCID=740cd40a
DTITLE=Janet Jackson - Escapade (The Remixes)
DYEAR=1989
DGENRE=R&B
TTITLE0=Escapade (The Get Away 7 Inch)
TTITLE1=Escapade (We've Got It Made 7 Inch)
TTITLE2=Escapade (The Good Time 7 Inch)
TTITLE3=Escapade (Housecapade 7 Inch)
TTITLE4=Escapade (Shep's Good Time Mix)
TTITLE5=Escapade (Shep's Housecapade Mix)
TTITLE6=Escapade (The Get Away Dub)
TTITLE7=Escapade (Housecapade Dub)
TTITLE8=Escapade (I Cant Take No More Dub)
TTITLE9=Escapade (LP Version)
EXTD=YEAR: 1989
EXTT0=
EXTT1=
EXTT2=
EXTT3=
EXTT4=
EXTT5=
EXTT6=
EXTT7=
EXTT8=
EXTT9=
PLAYORDER=
